<svg width="245" height="36" viewBox="0 0 245 36" fill="none" xmlns="http://www.w3.org/2000/svg">
<g style="mix-blend-mode:darken">
<path d="M0.528 28V2.8H4.416V28H0.528ZM2.256 17.272V13.528H15.252V17.272H2.256ZM2.256 6.544V2.8H16.872V6.544H2.256ZM29.5409 28.36C27.5969 28.36 25.8689 27.952 24.3569 27.136C22.8689 26.296 21.6929 25.156 20.8289 23.716C19.9889 22.276 19.5689 20.62 19.5689 18.748C19.5689 17.26 19.8089 15.904 20.2889 14.68C20.7689 13.456 21.4289 12.4 22.2689 11.512C23.1329 10.6 24.1529 9.904 25.3289 9.424C26.5289 8.92 27.8249 8.668 29.2169 8.668C30.4409 8.668 31.5809 8.908 32.6369 9.388C33.6929 9.844 34.6049 10.48 35.3729 11.296C36.1649 12.112 36.7649 13.084 37.1729 14.212C37.6049 15.316 37.8089 16.528 37.7849 17.848L37.7489 19.432H22.3049L21.4769 16.48H34.5449L34.0049 17.092V16.228C33.9329 15.436 33.6689 14.728 33.2129 14.104C32.7569 13.48 32.1809 12.988 31.4849 12.628C30.7889 12.268 30.0329 12.088 29.2169 12.088C27.9209 12.088 26.8289 12.34 25.9409 12.844C25.0529 13.324 24.3809 14.044 23.9249 15.004C23.4689 15.94 23.2409 17.104 23.2409 18.496C23.2409 19.816 23.5169 20.968 24.0689 21.952C24.6209 22.912 25.4009 23.656 26.4089 24.184C27.4169 24.712 28.5809 24.976 29.9009 24.976C30.8369 24.976 31.7009 24.82 32.4929 24.508C33.3089 24.196 34.1849 23.632 35.1209 22.816L36.9929 25.444C36.4169 26.02 35.7089 26.524 34.8689 26.956C34.0529 27.388 33.1769 27.736 32.2409 28C31.3289 28.24 30.4289 28.36 29.5409 28.36ZM41.8867 28V1.36H45.5947V28H41.8867ZM51.4618 28V9.1H55.1698V28H51.4618ZM53.2618 4.924C52.4698 4.924 51.8578 4.72 51.4258 4.312C50.9938 3.904 50.7778 3.328 50.7778 2.584C50.7778 1.888 50.9938 1.324 51.4258 0.891999C51.8818 0.459999 52.4938 0.243999 53.2618 0.243999C54.0538 0.243999 54.6658 0.447999 55.0978 0.856C55.5298 1.264 55.7458 1.84 55.7458 2.584C55.7458 3.28 55.5178 3.844 55.0618 4.276C54.6298 4.708 54.0298 4.924 53.2618 4.924ZM60.8693 35.92V9.1H64.6133V13.42L64.0373 13.096C64.1813 12.376 64.5893 11.692 65.2613 11.044C65.9333 10.372 66.7493 9.832 67.7093 9.424C68.6933 8.992 69.7013 8.776 70.7333 8.776C72.4373 8.776 73.9493 9.196 75.2693 10.036C76.5893 10.876 77.6333 12.028 78.4013 13.492C79.1693 14.956 79.5533 16.636 79.5533 18.532C79.5533 20.404 79.1693 22.084 78.4013 23.572C77.6573 25.036 76.6253 26.2 75.3053 27.064C73.9853 27.904 72.4973 28.324 70.8413 28.324C69.7373 28.324 68.6693 28.108 67.6373 27.676C66.6053 27.22 65.7293 26.644 65.0093 25.948C64.2893 25.252 63.8453 24.532 63.6773 23.788L64.6133 23.284V35.92H60.8693ZM70.2293 24.904C71.3333 24.904 72.3173 24.628 73.1813 24.076C74.0453 23.524 74.7293 22.768 75.2333 21.808C75.7373 20.848 75.9893 19.756 75.9893 18.532C75.9893 17.308 75.7373 16.228 75.2333 15.292C74.7533 14.332 74.0813 13.576 73.2173 13.024C72.3533 12.472 71.3573 12.196 70.2293 12.196C69.1013 12.196 68.1053 12.472 67.2413 13.024C66.3773 13.552 65.6933 14.296 65.1893 15.256C64.6853 16.216 64.4333 17.308 64.4333 18.532C64.4333 19.756 64.6853 20.848 65.1893 21.808C65.6933 22.768 66.3773 23.524 67.2413 24.076C68.1053 24.628 69.1013 24.904 70.2293 24.904ZM92.4003 28.36C90.4563 28.36 88.7283 27.952 87.2163 27.136C85.7283 26.296 84.5523 25.156 83.6883 23.716C82.8483 22.276 82.4283 20.62 82.4283 18.748C82.4283 17.26 82.6683 15.904 83.1483 14.68C83.6283 13.456 84.2883 12.4 85.1283 11.512C85.9923 10.6 87.0123 9.904 88.1883 9.424C89.3883 8.92 90.6843 8.668 92.0763 8.668C93.3003 8.668 94.4403 8.908 95.4963 9.388C96.5523 9.844 97.4643 10.48 98.2323 11.296C99.0243 12.112 99.6243 13.084 100.032 14.212C100.464 15.316 100.668 16.528 100.644 17.848L100.608 19.432H85.1643L84.3363 16.48H97.4043L96.8643 17.092V16.228C96.7923 15.436 96.5283 14.728 96.0723 14.104C95.6163 13.48 95.0403 12.988 94.3443 12.628C93.6483 12.268 92.8923 12.088 92.0763 12.088C90.7803 12.088 89.6883 12.34 88.8003 12.844C87.9123 13.324 87.2403 14.044 86.7843 15.004C86.3283 15.94 86.1003 17.104 86.1003 18.496C86.1003 19.816 86.3763 20.968 86.9283 21.952C87.4803 22.912 88.2603 23.656 89.2683 24.184C90.2763 24.712 91.4403 24.976 92.7603 24.976C93.6963 24.976 94.5603 24.82 95.3523 24.508C96.1683 24.196 97.0443 23.632 97.9803 22.816L99.8523 25.444C99.2763 26.02 98.5683 26.524 97.7283 26.956C96.9123 27.388 96.0363 27.736 95.1003 28C94.1883 28.24 93.2883 28.36 92.4003 28.36ZM126.248 28.36C124.472 28.36 122.828 28.036 121.316 27.388C119.828 26.74 118.52 25.84 117.392 24.688C116.288 23.512 115.424 22.144 114.8 20.584C114.2 19 113.9 17.272 113.9 15.4C113.9 13.528 114.2 11.812 114.8 10.252C115.424 8.668 116.288 7.3 117.392 6.148C118.52 4.972 119.828 4.06 121.316 3.412C122.828 2.764 124.472 2.44 126.248 2.44C128.024 2.44 129.656 2.764 131.144 3.412C132.656 4.06 133.964 4.972 135.068 6.148C136.196 7.324 137.06 8.704 137.66 10.288C138.284 11.848 138.596 13.552 138.596 15.4C138.596 17.248 138.284 18.964 137.66 20.548C137.06 22.108 136.196 23.476 135.068 24.652C133.964 25.828 132.656 26.74 131.144 27.388C129.656 28.036 128.024 28.36 126.248 28.36ZM126.248 24.58C127.472 24.58 128.588 24.352 129.596 23.896C130.628 23.44 131.516 22.804 132.26 21.988C133.004 21.148 133.58 20.176 133.988 19.072C134.42 17.944 134.636 16.72 134.636 15.4C134.636 14.08 134.42 12.868 133.988 11.764C133.58 10.636 133.004 9.664 132.26 8.848C131.516 8.008 130.628 7.36 129.596 6.904C128.588 6.448 127.472 6.22 126.248 6.22C125.024 6.22 123.896 6.448 122.864 6.904C121.856 7.36 120.968 7.996 120.2 8.812C119.456 9.628 118.88 10.6 118.472 11.728C118.064 12.832 117.86 14.056 117.86 15.4C117.86 16.72 118.064 17.944 118.472 19.072C118.88 20.2 119.456 21.172 120.2 21.988C120.968 22.804 121.856 23.44 122.864 23.896C123.896 24.352 125.024 24.58 126.248 24.58ZM142.996 28V1.36H146.704V28H142.996ZM152.571 28V9.1H156.279V28H152.571ZM154.371 4.924C153.579 4.924 152.967 4.72 152.535 4.312C152.103 3.904 151.887 3.328 151.887 2.584C151.887 1.888 152.103 1.324 152.535 0.891999C152.991 0.459999 153.603 0.243999 154.371 0.243999C155.163 0.243999 155.775 0.447999 156.207 0.856C156.639 1.264 156.855 1.84 156.855 2.584C156.855 3.28 156.627 3.844 156.171 4.276C155.739 4.708 155.139 4.924 154.371 4.924ZM168.171 28L160.179 9.1H164.175L169.935 23.248L169.251 23.572L175.407 9.1H179.223L170.835 28H168.171ZM190.908 28.36C188.964 28.36 187.236 27.952 185.724 27.136C184.236 26.296 183.06 25.156 182.196 23.716C181.356 22.276 180.936 20.62 180.936 18.748C180.936 17.26 181.176 15.904 181.656 14.68C182.136 13.456 182.796 12.4 183.636 11.512C184.5 10.6 185.52 9.904 186.696 9.424C187.896 8.92 189.192 8.668 190.584 8.668C191.808 8.668 192.948 8.908 194.004 9.388C195.06 9.844 195.972 10.48 196.74 11.296C197.532 12.112 198.132 13.084 198.54 14.212C198.972 15.316 199.176 16.528 199.152 17.848L199.116 19.432H183.672L182.844 16.48H195.912L195.372 17.092V16.228C195.3 15.436 195.036 14.728 194.58 14.104C194.124 13.48 193.548 12.988 192.852 12.628C192.156 12.268 191.4 12.088 190.584 12.088C189.288 12.088 188.196 12.34 187.308 12.844C186.42 13.324 185.748 14.044 185.292 15.004C184.836 15.94 184.608 17.104 184.608 18.496C184.608 19.816 184.884 20.968 185.436 21.952C185.988 22.912 186.768 23.656 187.776 24.184C188.784 24.712 189.948 24.976 191.268 24.976C192.204 24.976 193.068 24.82 193.86 24.508C194.676 24.196 195.552 23.632 196.488 22.816L198.36 25.444C197.784 26.02 197.076 26.524 196.236 26.956C195.42 27.388 194.544 27.736 193.608 28C192.696 28.24 191.796 28.36 190.908 28.36ZM203.794 28V9.1H207.502V28H203.794ZM205.594 4.924C204.802 4.924 204.19 4.72 203.758 4.312C203.326 3.904 203.11 3.328 203.11 2.584C203.11 1.888 203.326 1.324 203.758 0.891999C204.214 0.459999 204.826 0.243999 205.594 0.243999C206.386 0.243999 206.998 0.447999 207.43 0.856C207.862 1.264 208.078 1.84 208.078 2.584C208.078 3.28 207.85 3.844 207.394 4.276C206.962 4.708 206.362 4.924 205.594 4.924ZM213.201 28V9.1H216.945V15.04L216.585 13.6C216.849 12.688 217.293 11.86 217.917 11.116C218.565 10.372 219.297 9.784 220.113 9.352C220.953 8.92 221.817 8.704 222.705 8.704C223.113 8.704 223.497 8.74 223.857 8.812C224.241 8.884 224.541 8.968 224.757 9.064L223.785 13.096C223.497 12.976 223.173 12.88 222.813 12.808C222.477 12.712 222.141 12.664 221.805 12.664C221.157 12.664 220.533 12.796 219.933 13.06C219.357 13.3 218.841 13.648 218.385 14.104C217.953 14.536 217.605 15.052 217.341 15.652C217.077 16.228 216.945 16.864 216.945 17.56V28H213.201ZM234.184 28.36C232.624 28.36 231.196 27.928 229.9 27.064C228.628 26.2 227.608 25.024 226.84 23.536C226.072 22.048 225.688 20.368 225.688 18.496C225.688 16.6 226.072 14.92 226.84 13.456C227.632 11.968 228.688 10.804 230.008 9.964C231.352 9.124 232.852 8.704 234.508 8.704C235.492 8.704 236.392 8.848 237.208 9.136C238.024 9.424 238.732 9.832 239.332 10.36C239.956 10.864 240.46 11.452 240.844 12.124C241.252 12.796 241.504 13.516 241.6 14.284L240.772 13.996V9.1H244.516V28H240.772V23.5L241.636 23.248C241.492 23.896 241.192 24.532 240.736 25.156C240.304 25.756 239.74 26.296 239.044 26.776C238.372 27.256 237.616 27.64 236.776 27.928C235.96 28.216 235.096 28.36 234.184 28.36ZM235.156 24.94C236.284 24.94 237.28 24.664 238.144 24.112C239.008 23.56 239.68 22.804 240.16 21.844C240.664 20.86 240.916 19.744 240.916 18.496C240.916 17.272 240.664 16.18 240.16 15.22C239.68 14.26 239.008 13.504 238.144 12.952C237.28 12.4 236.284 12.124 235.156 12.124C234.052 12.124 233.068 12.4 232.204 12.952C231.364 13.504 230.692 14.26 230.188 15.22C229.708 16.18 229.468 17.272 229.468 18.496C229.468 19.744 229.708 20.86 230.188 21.844C230.692 22.804 231.364 23.56 232.204 24.112C233.068 24.664 234.052 24.94 235.156 24.94Z" fill="black"/>
<path d="M0.528 28H-0.472V29H0.528V28ZM0.528 2.8V1.8H-0.472V2.8H0.528ZM4.416 2.8H5.416V1.8H4.416V2.8ZM4.416 28V29H5.416V28H4.416ZM2.256 17.272H1.256V18.272H2.256V17.272ZM2.256 13.528V12.528H1.256V13.528H2.256ZM15.252 13.528H16.252V12.528H15.252V13.528ZM15.252 17.272V18.272H16.252V17.272H15.252ZM2.256 6.544H1.256V7.544H2.256V6.544ZM2.256 2.8V1.8H1.256V2.8H2.256ZM16.872 2.8H17.872V1.8H16.872V2.8ZM16.872 6.544V7.544H17.872V6.544H16.872ZM1.528 28V2.8H-0.472V28H1.528ZM0.528 3.8H4.416V1.8H0.528V3.8ZM3.416 2.8V28H5.416V2.8H3.416ZM4.416 27H0.528V29H4.416V27ZM3.256 17.272V13.528H1.256V17.272H3.256ZM2.256 14.528H15.252V12.528H2.256V14.528ZM14.252 13.528V17.272H16.252V13.528H14.252ZM15.252 16.272H2.256V18.272H15.252V16.272ZM3.256 6.544V2.8H1.256V6.544H3.256ZM2.256 3.8H16.872V1.8H2.256V3.8ZM15.872 2.8V6.544H17.872V2.8H15.872ZM16.872 5.544H2.256V7.544H16.872V5.544ZM24.3569 27.136L23.8653 28.0068L23.8736 28.0115L23.882 28.016L24.3569 27.136ZM20.8289 23.716L19.9651 24.2199L19.9714 24.2305L20.8289 23.716ZM20.2889 14.68L21.2199 15.0451L21.2199 15.0451L20.2889 14.68ZM22.2689 11.512L21.543 10.8243L21.5424 10.8248L22.2689 11.512ZM25.3289 9.424L25.7068 10.3499L25.7161 10.346L25.3289 9.424ZM32.6369 9.388L32.2231 10.2984L32.2318 10.3023L32.2405 10.3061L32.6369 9.388ZM35.3729 11.296L34.6447 11.9814L34.65 11.987L34.6553 11.9925L35.3729 11.296ZM37.1729 14.212L36.2325 14.5521L36.2369 14.5643L36.2417 14.5764L37.1729 14.212ZM37.7849 17.848L38.7847 17.8707L38.7847 17.8662L37.7849 17.848ZM37.7489 19.432V20.432H38.7264L38.7486 19.4547L37.7489 19.432ZM22.3049 19.432L21.3421 19.7021L21.5468 20.432H22.3049V19.432ZM21.4769 16.48V15.48H20.1578L20.5141 16.7501L21.4769 16.48ZM34.5449 16.48L35.2947 17.1416L36.7609 15.48H34.5449V16.48ZM34.0049 17.092H33.0049V19.7368L34.7547 17.7536L34.0049 17.092ZM34.0049 16.228H35.0049V16.1826L35.0008 16.1375L34.0049 16.228ZM33.2129 14.104L34.0203 13.514L34.0203 13.514L33.2129 14.104ZM31.4849 12.628L31.0255 13.5162L31.0255 13.5162L31.4849 12.628ZM25.9409 12.844L26.4164 13.7237L26.4255 13.7188L26.4345 13.7137L25.9409 12.844ZM23.9249 15.004L24.8239 15.442L24.8282 15.4331L23.9249 15.004ZM24.0689 21.952L23.1967 22.4413L23.202 22.4505L24.0689 21.952ZM26.4089 24.184L25.9449 25.0698L25.9449 25.0698L26.4089 24.184ZM32.4929 24.508L32.1358 23.5739L32.1264 23.5776L32.4929 24.508ZM35.1209 22.816L35.9354 22.2358L35.2953 21.3373L34.4638 22.0622L35.1209 22.816ZM36.9929 25.444L37.7 26.1511L38.2982 25.5529L37.8074 24.8638L36.9929 25.444ZM34.8689 26.956L34.4115 26.0666L34.401 26.0722L34.8689 26.956ZM32.2409 28L32.4954 28.9671L32.5039 28.9648L32.5124 28.9624L32.2409 28ZM29.5409 27.36C27.7406 27.36 26.1797 26.9834 24.8318 26.256L23.882 28.016C25.5582 28.9206 27.4532 29.36 29.5409 29.36V27.36ZM24.8485 26.2652C23.5085 25.5087 22.4597 24.4904 21.6864 23.2015L19.9714 24.2305C20.9261 25.8216 22.2293 27.0833 23.8653 28.0068L24.8485 26.2652ZM21.6927 23.2121C20.9525 21.9432 20.5689 20.4652 20.5689 18.748H18.5689C18.5689 20.7748 19.0253 22.6088 19.9651 24.2199L21.6927 23.2121ZM20.5689 18.748C20.5689 17.3686 20.7911 16.1385 21.2199 15.0451L19.3579 14.3149C18.8267 15.6695 18.5689 17.1514 18.5689 18.748H20.5689ZM21.2199 15.0451C21.6566 13.9315 22.2501 12.9871 22.9954 12.1992L21.5424 10.8248C20.6077 11.8129 19.8812 12.9805 19.3579 14.3149L21.2199 15.0451ZM22.9949 12.1997C23.76 11.3921 24.6609 10.7767 25.7068 10.3498L24.951 8.49815C23.6449 9.03126 22.5058 9.80788 21.543 10.8243L22.9949 12.1997ZM25.7161 10.346C26.7852 9.89698 27.9485 9.668 29.2169 9.668V7.668C27.7013 7.668 26.2726 7.94302 24.9417 8.50202L25.7161 10.346ZM29.2169 9.668C30.3062 9.668 31.3042 9.88068 32.2231 10.2984L33.0507 8.47763C31.8576 7.93532 30.5756 7.668 29.2169 7.668V9.668ZM32.2405 10.3061C33.1746 10.7094 33.9728 11.2674 34.6447 11.9814L36.1011 10.6106C35.2371 9.69258 34.2113 8.97858 33.0333 8.46994L32.2405 10.3061ZM34.6553 11.9925C35.3433 12.7013 35.87 13.5499 36.2325 14.5521L38.1133 13.8719C37.6598 12.6181 36.9865 11.5227 36.0905 10.5995L34.6553 11.9925ZM36.2417 14.5764C36.6209 15.5455 36.807 16.6257 36.7851 17.8298L38.7847 17.8662C38.8109 16.4303 38.5889 15.0865 38.1042 13.8476L36.2417 14.5764ZM36.7852 17.8253L36.7492 19.4093L38.7486 19.4547L38.7846 17.8707L36.7852 17.8253ZM37.7489 18.432H22.3049V20.432H37.7489V18.432ZM23.2677 19.1619L22.4397 16.2099L20.5141 16.7501L21.3421 19.7021L23.2677 19.1619ZM21.4769 17.48H34.5449V15.48H21.4769V17.48ZM33.7951 15.8184L33.2551 16.4304L34.7547 17.7536L35.2947 17.1416L33.7951 15.8184ZM35.0049 17.092V16.228H33.0049V17.092H35.0049ZM35.0008 16.1375C34.9129 15.1705 34.5864 14.2887 34.0203 13.514L32.4055 14.694C32.7514 15.1673 32.9529 15.7015 33.009 16.3185L35.0008 16.1375ZM34.0203 13.514C33.4716 12.7632 32.7759 12.1699 31.9443 11.7398L31.0255 13.5162C31.586 13.8061 32.0422 14.1968 32.4055 14.694L34.0203 13.514ZM31.9443 11.7398C31.1004 11.3033 30.1859 11.088 29.2169 11.088V13.088C29.8799 13.088 30.4774 13.2327 31.0255 13.5162L31.9443 11.7398ZM29.2169 11.088C27.7936 11.088 26.5211 11.3649 25.4473 11.9743L26.4345 13.7137C27.1367 13.3151 28.0482 13.088 29.2169 13.088V11.088ZM25.4654 11.9643C24.3803 12.5508 23.5636 13.4339 23.0216 14.5749L24.8282 15.4331C25.1982 14.6541 25.7255 14.0972 26.4164 13.7237L25.4654 11.9643ZM23.0259 14.566C22.485 15.6764 22.2409 17.001 22.2409 18.496H24.2409C24.2409 17.207 24.4528 16.2036 24.8239 15.442L23.0259 14.566ZM22.2409 18.496C22.2409 19.958 22.5477 21.2842 23.1968 22.4413L24.941 21.4627C24.4861 20.6518 24.2409 19.674 24.2409 18.496H22.2409ZM23.202 22.4505C23.8515 23.58 24.7734 24.4562 25.9449 25.0698L26.8729 23.2982C26.0284 22.8558 25.3903 22.244 24.9358 21.4535L23.202 22.4505ZM25.9449 25.0698C27.1174 25.684 28.4452 25.976 29.9009 25.976V23.976C28.7166 23.976 27.7164 23.74 26.8729 23.2982L25.9449 25.0698ZM29.9009 25.976C30.9499 25.976 31.9396 25.8008 32.8594 25.4384L32.1264 23.5776C31.4622 23.8392 30.724 23.976 29.9009 23.976V25.976ZM32.85 25.4421C33.8116 25.0744 34.7877 24.4331 35.778 23.5698L34.4638 22.0622C33.5821 22.8309 32.8062 23.3176 32.1358 23.5739L32.85 25.4421ZM34.3064 23.3962L36.1784 26.0242L37.8074 24.8638L35.9354 22.2358L34.3064 23.3962ZM36.2858 24.7369C35.7937 25.229 35.1738 25.6747 34.4116 26.0667L35.3263 27.8453C36.2441 27.3733 37.0401 26.811 37.7 26.1511L36.2858 24.7369ZM34.401 26.0722C33.6508 26.4694 32.841 26.7917 31.9694 27.0376L32.5124 28.9624C33.5128 28.6803 34.4551 28.3066 35.3368 27.8398L34.401 26.0722ZM31.9864 27.0329C31.1523 27.2524 30.3379 27.36 29.5409 27.36V29.36C30.52 29.36 31.5055 29.2276 32.4954 28.9671L31.9864 27.0329ZM41.8867 28H40.8867V29H41.8867V28ZM41.8867 1.36V0.36H40.8867V1.36H41.8867ZM45.5947 1.36H46.5947V0.36H45.5947V1.36ZM45.5947 28V29H46.5947V28H45.5947ZM42.8867 28V1.36H40.8867V28H42.8867ZM41.8867 2.36H45.5947V0.36H41.8867V2.36ZM44.5947 1.36V28H46.5947V1.36H44.5947ZM45.5947 27H41.8867V29H45.5947V27ZM51.4618 28H50.4618V29H51.4618V28ZM51.4618 9.1V8.1H50.4618V9.1H51.4618ZM55.1698 9.1H56.1698V8.1H55.1698V9.1ZM55.1698 28V29H56.1698V28H55.1698ZM51.4258 4.312L52.1124 3.58499L52.1124 3.58498L51.4258 4.312ZM51.4258 0.891999L50.7381 0.166047L50.7283 0.175339L50.7187 0.184892L51.4258 0.891999ZM55.0978 0.856L54.4112 1.58301L54.4112 1.58301L55.0978 0.856ZM55.0618 4.276L54.3741 3.55005L54.3643 3.55934L54.3547 3.56889L55.0618 4.276ZM52.4618 28V9.1H50.4618V28H52.4618ZM51.4618 10.1H55.1698V8.1H51.4618V10.1ZM54.1698 9.1V28H56.1698V9.1H54.1698ZM55.1698 27H51.4618V29H55.1698V27ZM53.2618 3.924C52.6381 3.924 52.3039 3.76585 52.1124 3.58499L50.7392 5.03901C51.4117 5.67415 52.3015 5.924 53.2618 5.924V3.924ZM52.1124 3.58498C51.9285 3.41125 51.7778 3.12676 51.7778 2.584H49.7778C49.7778 3.52924 50.0591 4.39675 50.7392 5.03901L52.1124 3.58498ZM51.7778 2.584C51.7778 2.11306 51.9151 1.81696 52.1329 1.59911L50.7187 0.184892C50.0726 0.831035 49.7778 1.66294 49.7778 2.584H51.7778ZM52.1136 1.61795C52.3443 1.39932 52.6896 1.244 53.2618 1.244V-0.756001C52.2981 -0.756001 51.4193 -0.479324 50.7381 0.166047L52.1136 1.61795ZM53.2618 1.244C53.8855 1.244 54.2197 1.40215 54.4112 1.58301L55.7844 0.128987C55.1119 -0.506152 54.2221 -0.756001 53.2618 -0.756001V1.244ZM54.4112 1.58301C54.5951 1.75675 54.7458 2.04124 54.7458 2.584H56.7458C56.7458 1.63875 56.4645 0.771251 55.7844 0.128986L54.4112 1.58301ZM54.7458 2.584C54.7458 3.03821 54.6081 3.32833 54.3741 3.55005L55.7496 5.00195C56.4275 4.35967 56.7458 3.52178 56.7458 2.584H54.7458ZM54.3547 3.56889C54.1556 3.768 53.8365 3.924 53.2618 3.924V5.924C54.2231 5.924 55.104 5.648 55.7689 4.98311L54.3547 3.56889ZM60.8693 35.92H59.8693V36.92H60.8693V35.92ZM60.8693 9.1V8.1H59.8693V9.1H60.8693ZM64.6133 9.1H65.6133V8.1H64.6133V9.1ZM64.6133 13.42L64.1231 14.2916L65.6133 15.1298V13.42H64.6133ZM64.0373 13.096L63.0568 12.8999L62.9144 13.6117L63.5471 13.9676L64.0373 13.096ZM65.2613 11.044L65.9555 11.7638L65.962 11.7575L65.9685 11.7511L65.2613 11.044ZM67.7093 9.424L68.1005 10.3444L68.1113 10.3396L67.7093 9.424ZM75.2693 10.036L74.7325 10.8797L74.7325 10.8797L75.2693 10.036ZM78.4013 13.492L79.2869 13.0274L79.2869 13.0274L78.4013 13.492ZM78.4013 23.572L77.5127 23.1133L77.5099 23.1189L78.4013 23.572ZM75.3053 27.064L75.8423 27.9077L75.853 27.9007L75.3053 27.064ZM67.6373 27.676L67.2332 28.5907L67.2422 28.5947L67.2512 28.5984L67.6373 27.676ZM65.0093 25.948L65.7044 25.229L65.7044 25.229L65.0093 25.948ZM63.6773 23.788L63.2032 22.9075L62.5346 23.2675L62.7019 24.0083L63.6773 23.788ZM64.6133 23.284H65.6133V21.6098L64.1392 22.4035L64.6133 23.284ZM64.6133 35.92V36.92H65.6133V35.92H64.6133ZM73.1813 24.076L73.7197 24.9187L73.7197 24.9187L73.1813 24.076ZM75.2333 15.292L74.3389 15.7392L74.3457 15.7528L74.3529 15.7661L75.2333 15.292ZM67.2413 13.024L67.7628 13.8773L67.7713 13.8721L67.7797 13.8667L67.2413 13.024ZM65.1893 15.256L66.0747 15.7208L66.0747 15.7208L65.1893 15.256ZM65.1893 21.808L64.3039 22.2728L64.3039 22.2728L65.1893 21.808ZM67.2413 24.076L66.703 24.9187L66.703 24.9187L67.2413 24.076ZM61.8693 35.92V9.1H59.8693V35.92H61.8693ZM60.8693 10.1H64.6133V8.1H60.8693V10.1ZM63.6133 9.1V13.42H65.6133V9.1H63.6133ZM65.1036 12.5484L64.5276 12.2244L63.5471 13.9676L64.1231 14.2916L65.1036 12.5484ZM65.0179 13.2921C65.1124 12.8199 65.3903 12.3089 65.9555 11.7638L64.5672 10.3242C63.7884 11.0751 63.2503 11.9321 63.0568 12.8999L65.0179 13.2921ZM65.9685 11.7511C66.5413 11.1783 67.247 10.7071 68.1005 10.3443L67.3182 8.50367C66.2517 8.95692 65.3254 9.56574 64.5542 10.3369L65.9685 11.7511ZM68.1113 10.3396C68.974 9.96092 69.8455 9.776 70.7333 9.776V7.776C69.5572 7.776 68.4127 8.02307 67.3074 8.50835L68.1113 10.3396ZM70.7333 9.776C72.2648 9.776 73.5872 10.1508 74.7325 10.8797L75.8062 9.19234C74.3115 8.24117 72.6099 7.776 70.7333 7.776V9.776ZM74.7325 10.8797C75.8967 11.6205 76.8242 12.6381 77.5158 13.9565L79.2869 13.0274C78.4425 11.4179 77.282 10.1315 75.8062 9.19234L74.7325 10.8797ZM77.5158 13.9565C78.1982 15.2575 78.5533 16.7739 78.5533 18.532H80.5533C80.5533 16.4981 80.1405 14.6545 79.2869 13.0274L77.5158 13.9565ZM78.5533 18.532C78.5533 20.2635 78.1993 21.7832 77.5127 23.1134L79.29 24.0306C80.1394 22.3848 80.5533 20.5445 80.5533 18.532H78.5533ZM77.5099 23.1189C76.8416 24.4339 75.9254 25.463 74.7577 26.2273L75.853 27.9007C77.3253 26.937 78.4731 25.6381 79.2928 24.025L77.5099 23.1189ZM74.7685 26.2203C73.6185 26.9522 72.3188 27.324 70.8413 27.324V29.324C72.6759 29.324 74.3522 28.8558 75.8422 27.9077L74.7685 26.2203ZM70.8413 27.324C69.8717 27.324 68.9349 27.1351 68.0235 26.7536L67.2512 28.5984C68.4038 29.0809 69.603 29.324 70.8413 29.324V27.324ZM68.0415 26.7613C67.1037 26.3469 66.3297 25.8335 65.7044 25.229L64.3143 26.667C65.129 27.4545 66.107 28.0931 67.2332 28.5907L68.0415 26.7613ZM65.7044 25.229C65.0813 24.6267 64.7663 24.0707 64.6528 23.5677L62.7019 24.0083C62.9243 24.9933 63.4974 25.8773 64.3143 26.667L65.7044 25.229ZM64.1514 24.6685L65.0874 24.1645L64.1392 22.4035L63.2032 22.9075L64.1514 24.6685ZM63.6133 23.284V35.92H65.6133V23.284H63.6133ZM64.6133 34.92H60.8693V36.92H64.6133V34.92ZM70.2293 25.904C71.5089 25.904 72.6825 25.5813 73.7197 24.9187L72.643 23.2333C71.9521 23.6747 71.1578 23.904 70.2293 23.904V25.904ZM73.7197 24.9187C74.7388 24.2676 75.5387 23.3776 76.1187 22.2728L74.3479 21.3432C73.92 22.1584 73.3519 22.7804 72.643 23.2333L73.7197 24.9187ZM76.1187 22.2728C76.7073 21.1519 76.9893 19.8968 76.9893 18.532H74.9893C74.9893 19.6152 74.7674 20.5441 74.3479 21.3432L76.1187 22.2728ZM76.9893 18.532C76.9893 17.1678 76.7074 15.9203 76.1138 14.8179L74.3529 15.7661C74.7673 16.5357 74.9893 17.4482 74.9893 18.532H76.9893ZM76.1278 14.8448C75.5709 13.7311 74.7792 12.8352 73.7557 12.1813L72.679 13.8667C73.3835 14.3168 73.9357 14.9329 74.3389 15.7392L76.1278 14.8448ZM73.7557 12.1813C72.715 11.5164 71.5283 11.196 70.2293 11.196V13.196C71.1864 13.196 71.9917 13.4276 72.679 13.8667L73.7557 12.1813ZM70.2293 11.196C68.9304 11.196 67.7437 11.5164 66.703 12.1813L67.7797 13.8667C68.467 13.4276 69.2723 13.196 70.2293 13.196V11.196ZM66.7199 12.1707C65.6908 12.7996 64.8858 13.6829 64.3039 14.7912L66.0747 15.7208C66.5009 14.9091 67.0639 14.3044 67.7628 13.8773L66.7199 12.1707ZM64.3039 14.7912C63.7154 15.9121 63.4333 17.1672 63.4333 18.532H65.4333C65.4333 17.4488 65.6553 16.5199 66.0747 15.7208L64.3039 14.7912ZM63.4333 18.532C63.4333 19.8968 63.7154 21.1519 64.3039 22.2728L66.0747 21.3432C65.6553 20.5441 65.4333 19.6152 65.4333 18.532H63.4333ZM64.3039 22.2728C64.884 23.3776 65.6839 24.2676 66.703 24.9187L67.7797 23.2333C67.0708 22.7804 66.5027 22.1584 66.0747 21.3432L64.3039 22.2728ZM66.703 24.9187C67.7437 25.5836 68.9304 25.904 70.2293 25.904V23.904C69.2723 23.904 68.467 23.6724 67.7797 23.2333L66.703 24.9187ZM87.2163 27.136L86.7247 28.0068L86.733 28.0115L86.7413 28.016L87.2163 27.136ZM83.6883 23.716L82.8244 24.2199L82.8308 24.2305L83.6883 23.716ZM83.1483 14.68L84.0793 15.0451L84.0793 15.0451L83.1483 14.68ZM85.1283 11.512L84.4023 10.8243L84.4018 10.8248L85.1283 11.512ZM88.1883 9.424L88.5662 10.3499L88.5755 10.346L88.1883 9.424ZM95.4963 9.388L95.0825 10.2984L95.0911 10.3023L95.0998 10.3061L95.4963 9.388ZM98.2323 11.296L97.5041 11.9814L97.5093 11.987L97.5147 11.9925L98.2323 11.296ZM100.032 14.212L99.0919 14.5521L99.0963 14.5643L99.101 14.5764L100.032 14.212ZM100.644 17.848L101.644 17.8707L101.644 17.8662L100.644 17.848ZM100.608 19.432V20.432H101.586L101.608 19.4547L100.608 19.432ZM85.1643 19.432L84.2014 19.7021L84.4062 20.432H85.1643V19.432ZM84.3363 16.48V15.48H83.0172L83.3734 16.7501L84.3363 16.48ZM97.4043 16.48L98.1541 17.1416L99.6203 15.48H97.4043V16.48ZM96.8643 17.092H95.8643V19.7368L97.6141 17.7536L96.8643 17.092ZM96.8643 16.228H97.8643V16.1826L97.8602 16.1375L96.8643 16.228ZM96.0723 14.104L96.8797 13.514L96.8797 13.514L96.0723 14.104ZM94.3443 12.628L93.8849 13.5162L93.8849 13.5162L94.3443 12.628ZM88.8003 12.844L89.2758 13.7237L89.2849 13.7188L89.2939 13.7137L88.8003 12.844ZM86.7843 15.004L87.6833 15.442L87.6876 15.4331L86.7843 15.004ZM86.9283 21.952L86.0561 22.4413L86.0614 22.4505L86.9283 21.952ZM89.2683 24.184L88.8043 25.0698L88.8043 25.0698L89.2683 24.184ZM95.3523 24.508L94.9951 23.5739L94.9858 23.5776L95.3523 24.508ZM97.9803 22.816L98.7948 22.2358L98.1547 21.3373L97.3231 22.0622L97.9803 22.816ZM99.8523 25.444L100.559 26.1511L101.158 25.5529L100.667 24.8638L99.8523 25.444ZM97.7283 26.956L97.2709 26.0666L97.2604 26.0722L97.7283 26.956ZM95.1003 28L95.3548 28.9671L95.3633 28.9648L95.3717 28.9624L95.1003 28ZM92.4003 27.36C90.6 27.36 89.039 26.9834 87.6912 26.256L86.7413 28.016C88.4175 28.9206 90.3126 29.36 92.4003 29.36V27.36ZM87.7079 26.2652C86.3679 25.5087 85.3191 24.4904 84.5458 23.2015L82.8308 24.2305C83.7855 25.8216 85.0887 27.0833 86.7247 28.0068L87.7079 26.2652ZM84.5521 23.2121C83.8118 21.9432 83.4283 20.4652 83.4283 18.748H81.4283C81.4283 20.7748 81.8847 22.6088 82.8245 24.2199L84.5521 23.2121ZM83.4283 18.748C83.4283 17.3686 83.6505 16.1385 84.0793 15.0451L82.2173 14.3149C81.6861 15.6695 81.4283 17.1514 81.4283 18.748H83.4283ZM84.0793 15.0451C84.516 13.9315 85.1094 12.9871 85.8547 12.1992L84.4018 10.8248C83.4671 11.8129 82.7406 12.9805 82.2173 14.3149L84.0793 15.0451ZM85.8542 12.1997C86.6193 11.3921 87.5203 10.7767 88.5662 10.3498L87.8104 8.49815C86.5043 9.03126 85.3652 9.80788 84.4023 10.8243L85.8542 12.1997ZM88.5755 10.346C89.6446 9.89698 90.8079 9.668 92.0763 9.668V7.668C90.5607 7.668 89.132 7.94302 87.801 8.50202L88.5755 10.346ZM92.0763 9.668C93.1656 9.668 94.1636 9.88068 95.0825 10.2984L95.9101 8.47763C94.717 7.93532 93.435 7.668 92.0763 7.668V9.668ZM95.0998 10.3061C96.0339 10.7094 96.8321 11.2674 97.5041 11.9814L98.9605 10.6106C98.0964 9.69258 97.0706 8.97858 95.8927 8.46994L95.0998 10.3061ZM97.5147 11.9925C98.2027 12.7013 98.7294 13.5499 99.0919 14.5521L100.973 13.8719C100.519 12.6181 99.8459 11.5227 98.9499 10.5995L97.5147 11.9925ZM99.101 14.5764C99.4802 15.5455 99.6663 16.6257 99.6444 17.8298L101.644 17.8662C101.67 16.4303 101.448 15.0865 100.964 13.8476L99.101 14.5764ZM99.6445 17.8253L99.6085 19.4093L101.608 19.4547L101.644 17.8707L99.6445 17.8253ZM100.608 18.432H85.1643V20.432H100.608V18.432ZM86.1271 19.1619L85.2991 16.2099L83.3734 16.7501L84.2014 19.7021L86.1271 19.1619ZM84.3363 17.48H97.4043V15.48H84.3363V17.48ZM96.6544 15.8184L96.1144 16.4304L97.6141 17.7536L98.1541 17.1416L96.6544 15.8184ZM97.8643 17.092V16.228H95.8643V17.092H97.8643ZM97.8602 16.1375C97.7723 15.1705 97.4458 14.2887 96.8797 13.514L95.2649 14.694C95.6107 15.1673 95.8123 15.7015 95.8684 16.3185L97.8602 16.1375ZM96.8797 13.514C96.331 12.7632 95.6352 12.1699 94.8037 11.7398L93.8849 13.5162C94.4453 13.8061 94.9015 14.1968 95.2649 14.694L96.8797 13.514ZM94.8037 11.7398C93.9598 11.3033 93.0453 11.088 92.0763 11.088V13.088C92.7392 13.088 93.3368 13.2327 93.8849 13.5162L94.8037 11.7398ZM92.0763 11.088C90.653 11.088 89.3805 11.3649 88.3067 11.9743L89.2939 13.7137C89.9961 13.3151 90.9076 13.088 92.0763 13.088V11.088ZM88.3248 11.9643C87.2397 12.5508 86.423 13.4339 85.881 14.5749L87.6876 15.4331C88.0576 14.6541 88.5849 14.0972 89.2758 13.7237L88.3248 11.9643ZM85.8853 14.566C85.3443 15.6764 85.1003 17.001 85.1003 18.496H87.1003C87.1003 17.207 87.3122 16.2036 87.6833 15.442L85.8853 14.566ZM85.1003 18.496C85.1003 19.958 85.4071 21.2842 86.0561 22.4413L87.8004 21.4627C87.3455 20.6518 87.1003 19.674 87.1003 18.496H85.1003ZM86.0614 22.4505C86.7108 23.58 87.6328 24.4562 88.8043 25.0698L89.7323 23.2982C88.8878 22.8558 88.2497 22.244 87.7952 21.4535L86.0614 22.4505ZM88.8043 25.0698C89.9768 25.684 91.3046 25.976 92.7603 25.976V23.976C91.576 23.976 90.5758 23.74 89.7323 23.2982L88.8043 25.0698ZM92.7603 25.976C93.8092 25.976 94.799 25.8008 95.7188 25.4384L94.9858 23.5776C94.3216 23.8392 93.5833 23.976 92.7603 23.976V25.976ZM95.7094 25.4421C96.6709 25.0744 97.6471 24.4331 98.6374 23.5698L97.3231 22.0622C96.4415 22.8309 95.6656 23.3176 94.9951 23.5739L95.7094 25.4421ZM97.1658 23.3962L99.0378 26.0242L100.667 24.8638L98.7948 22.2358L97.1658 23.3962ZM99.1452 24.7369C98.6531 25.229 98.0331 25.6747 97.2709 26.0667L98.1856 27.8453C99.1034 27.3733 99.8995 26.811 100.559 26.1511L99.1452 24.7369ZM97.2604 26.0722C96.5101 26.4694 95.7004 26.7917 94.8288 27.0376L95.3717 28.9624C96.3722 28.6803 97.3144 28.3066 98.1962 27.8398L97.2604 26.0722ZM94.8458 27.0329C94.0117 27.2524 93.1972 27.36 92.4003 27.36V29.36C93.3793 29.36 94.3648 29.2276 95.3548 28.9671L94.8458 27.0329ZM121.316 27.388L120.917 28.3049L120.922 28.3071L121.316 27.388ZM117.392 24.688L116.663 25.3724L116.67 25.3801L116.677 25.3876L117.392 24.688ZM114.8 20.584L113.865 20.9382L113.868 20.9468L113.871 20.9554L114.8 20.584ZM114.8 10.252L113.869 9.88546L113.867 9.89302L114.8 10.252ZM117.392 6.148L116.67 5.45577L116.67 5.45609L117.392 6.148ZM121.316 3.412L120.922 2.49284L120.917 2.49516L121.316 3.412ZM131.144 3.412L130.745 4.32885L130.75 4.33114L131.144 3.412ZM135.068 6.148L134.339 6.83247L134.346 6.84022L135.068 6.148ZM137.66 10.288L136.725 10.6422L136.728 10.6508L136.731 10.6594L137.66 10.288ZM137.66 20.548L136.729 20.1815L136.727 20.189L137.66 20.548ZM135.068 24.652L134.346 23.9597L134.339 23.9676L135.068 24.652ZM131.144 27.388L130.75 26.4688L130.745 26.4712L131.144 27.388ZM129.596 23.896L129.192 22.9813L129.184 22.9849L129.596 23.896ZM132.26 21.988L132.999 22.6618L133.004 22.6564L133.008 22.651L132.26 21.988ZM133.988 19.072L133.054 18.7143L133.05 18.7254L133.988 19.072ZM133.988 11.764L133.047 12.1041L133.052 12.1163L133.057 12.1284L133.988 11.764ZM132.26 8.848L131.511 9.51103L131.516 9.51643L131.521 9.52175L132.26 8.848ZM129.596 6.904L129.184 7.81514L129.192 7.81869L129.596 6.904ZM122.864 6.904L122.46 5.98928L122.452 5.99289L122.864 6.904ZM120.2 8.812L119.472 8.12663L119.466 8.1324L119.461 8.13824L120.2 8.812ZM118.472 11.728L119.41 12.0747L119.412 12.0681L118.472 11.728ZM118.472 19.072L119.412 18.7319L119.412 18.7319L118.472 19.072ZM120.2 21.988L119.461 22.6618L119.466 22.6676L119.472 22.6734L120.2 21.988ZM122.864 23.896L122.452 24.8071L122.46 24.8107L122.864 23.896ZM126.248 27.36C124.596 27.36 123.088 27.0594 121.71 26.4689L120.922 28.3071C122.568 29.0126 124.347 29.36 126.248 29.36V27.36ZM121.715 26.4712C120.344 25.8742 119.144 25.0477 118.106 23.9884L116.677 25.3876C117.896 26.6323 119.311 27.6058 120.917 28.3048L121.715 26.4712ZM118.121 24.0036C117.106 22.9223 116.308 21.6616 115.728 20.2126L113.871 20.9554C114.54 22.6264 115.47 24.1017 116.663 25.3724L118.121 24.0036ZM115.735 20.2298C115.182 18.7703 114.9 17.1637 114.9 15.4H112.9C112.9 17.3803 113.218 19.2297 113.865 20.9382L115.735 20.2298ZM114.9 15.4C114.9 13.6361 115.182 12.0435 115.733 10.611L113.867 9.89302C113.217 11.5805 112.9 13.4199 112.9 15.4H114.9ZM115.73 10.6185C116.31 9.1473 117.106 7.89187 118.114 6.8399L116.67 5.45609C115.47 6.70813 114.538 8.1887 113.869 9.88547L115.73 10.6185ZM118.114 6.84022C119.15 5.75928 120.349 4.9238 121.715 4.32883L120.917 2.49516C119.307 3.19619 117.889 4.18471 116.67 5.45577L118.114 6.84022ZM121.71 4.33114C123.088 3.74062 124.596 3.44 126.248 3.44V1.44C124.347 1.44 122.568 1.78737 120.922 2.49285L121.71 4.33114ZM126.248 3.44C127.9 3.44 129.394 3.74067 130.745 4.32883L131.543 2.49516C129.918 1.78732 128.148 1.44 126.248 1.44V3.44ZM130.75 4.33114C132.138 4.92595 133.331 5.75896 134.339 6.83243L135.797 5.46356C134.597 4.18503 133.174 3.19405 131.538 2.49285L130.75 4.33114ZM134.346 6.84022C135.377 7.91524 136.17 9.17904 136.725 10.6422L138.595 9.93377C137.949 8.22896 137.014 6.73276 135.79 5.45577L134.346 6.84022ZM136.731 10.6594C137.304 12.09 137.596 13.6665 137.596 15.4H139.596C139.596 13.4375 139.264 11.606 138.588 9.91661L136.731 10.6594ZM137.596 15.4C137.596 17.1333 137.304 18.7238 136.729 20.1815L138.59 20.9145C139.264 19.2042 139.596 17.3627 139.596 15.4H137.596ZM136.727 20.189C136.173 21.6282 135.38 22.8822 134.346 23.9598L135.79 25.3442C137.012 24.0698 137.947 22.5878 138.593 20.907L136.727 20.189ZM134.339 23.9676C133.331 25.041 132.138 25.874 130.75 26.4689L131.538 28.3071C133.174 27.606 134.597 26.615 135.797 25.3364L134.339 23.9676ZM130.745 26.4712C129.394 27.0593 127.9 27.36 126.248 27.36V29.36C128.148 29.36 129.918 29.0127 131.543 28.3048L130.745 26.4712ZM126.248 25.58C127.599 25.58 128.857 25.3277 130.008 24.8071L129.184 22.9849C128.318 23.3763 127.345 23.58 126.248 23.58V25.58ZM130 24.8107C131.156 24.2998 132.159 23.5827 132.999 22.6618L131.521 21.3142C130.873 22.0253 130.099 22.5802 129.192 22.9813L130 24.8107ZM133.008 22.651C133.839 21.7137 134.477 20.6332 134.926 19.4186L133.05 18.7254C132.683 19.7188 132.169 20.5823 131.511 21.325L133.008 22.651ZM134.922 19.4296C135.401 18.1773 135.636 16.8309 135.636 15.4H133.636C133.636 16.6091 133.438 17.7107 133.054 18.7144L134.922 19.4296ZM135.636 15.4C135.636 13.9694 135.401 12.6322 134.919 11.3996L133.057 12.1284C133.438 13.1038 133.636 14.1906 133.636 15.4H135.636ZM134.928 11.4239C134.48 10.1832 133.839 9.09525 132.999 8.17425L131.521 9.52175C132.169 10.2328 132.68 11.0888 133.047 12.1041L134.928 11.4239ZM133.008 8.18496C132.169 7.23668 131.163 6.50312 130 5.98931L129.192 7.81869C130.093 8.21688 130.863 8.77932 131.511 9.51103L133.008 8.18496ZM130.008 5.99289C128.857 5.47234 127.599 5.22 126.248 5.22V7.22C127.345 7.22 128.318 7.42366 129.184 7.81511L130.008 5.99289ZM126.248 5.22C124.897 5.22 123.63 5.47242 122.46 5.98931L123.268 7.81869C124.162 7.42358 125.151 7.22 126.248 7.22V5.22ZM122.452 5.99289C121.323 6.50347 120.328 7.21671 119.472 8.12663L120.928 9.49736C121.608 8.77529 122.389 8.21653 123.276 7.81511L122.452 5.99289ZM119.461 8.13824C118.621 9.05925 117.98 10.1472 117.531 11.3879L119.412 12.0681C119.78 11.0528 120.291 10.1968 120.939 9.48575L119.461 8.13824ZM117.534 11.3813C117.079 12.6109 116.86 13.9543 116.86 15.4H118.86C118.86 14.1577 119.048 13.0531 119.41 12.0746L117.534 11.3813ZM116.86 15.4C116.86 16.8244 117.08 18.1647 117.531 19.4121L119.412 18.7319C119.047 17.7233 118.86 16.6156 118.86 15.4H116.86ZM117.531 19.4121C117.98 20.6528 118.621 21.7408 119.461 22.6618L120.939 21.3142C120.291 20.6032 119.78 19.7472 119.412 18.7319L117.531 19.4121ZM119.472 22.6734C120.328 23.5833 121.323 24.2965 122.452 24.8071L123.276 22.9849C122.389 22.5835 121.608 22.0247 120.928 21.3026L119.472 22.6734ZM122.46 24.8107C123.63 25.3276 124.897 25.58 126.248 25.58V23.58C125.151 23.58 124.162 23.3764 123.268 22.9813L122.46 24.8107ZM142.996 28H141.996V29H142.996V28ZM142.996 1.36V0.36H141.996V1.36H142.996ZM146.704 1.36H147.704V0.36H146.704V1.36ZM146.704 28V29H147.704V28H146.704ZM143.996 28V1.36H141.996V28H143.996ZM142.996 2.36H146.704V0.36H142.996V2.36ZM145.704 1.36V28H147.704V1.36H145.704ZM146.704 27H142.996V29H146.704V27ZM152.571 28H151.571V29H152.571V28ZM152.571 9.1V8.1H151.571V9.1H152.571ZM156.279 9.1H157.279V8.1H156.279V9.1ZM156.279 28V29H157.279V28H156.279ZM152.535 4.312L153.222 3.58499L153.222 3.58498L152.535 4.312ZM152.535 0.891999L151.847 0.166047L151.838 0.175339L151.828 0.184892L152.535 0.891999ZM156.207 0.856L155.521 1.58301L155.521 1.58301L156.207 0.856ZM156.171 4.276L155.483 3.55005L155.474 3.55934L155.464 3.56889L156.171 4.276ZM153.571 28V9.1H151.571V28H153.571ZM152.571 10.1H156.279V8.1H152.571V10.1ZM155.279 9.1V28H157.279V9.1H155.279ZM156.279 27H152.571V29H156.279V27ZM154.371 3.924C153.747 3.924 153.413 3.76585 153.222 3.58499L151.849 5.03901C152.521 5.67415 153.411 5.924 154.371 5.924V3.924ZM153.222 3.58498C153.038 3.41125 152.887 3.12676 152.887 2.584H150.887C150.887 3.52924 151.169 4.39675 151.849 5.03901L153.222 3.58498ZM152.887 2.584C152.887 2.11306 153.024 1.81696 153.242 1.59911L151.828 0.184892C151.182 0.831035 150.887 1.66294 150.887 2.584H152.887ZM153.223 1.61795C153.454 1.39932 153.799 1.244 154.371 1.244V-0.756001C153.407 -0.756001 152.529 -0.479324 151.847 0.166047L153.223 1.61795ZM154.371 1.244C154.995 1.244 155.329 1.40215 155.521 1.58301L156.894 0.128987C156.221 -0.506152 155.331 -0.756001 154.371 -0.756001V1.244ZM155.521 1.58301C155.705 1.75675 155.855 2.04124 155.855 2.584H157.855C157.855 1.63875 157.574 0.771251 156.894 0.128986L155.521 1.58301ZM155.855 2.584C155.855 3.03821 155.717 3.32833 155.483 3.55005L156.859 5.00195C157.537 4.35967 157.855 3.52178 157.855 2.584H155.855ZM155.464 3.56889C155.265 3.768 154.946 3.924 154.371 3.924V5.924C155.333 5.924 156.213 5.648 156.878 4.98311L155.464 3.56889ZM168.171 28L167.25 28.3895L167.508 29H168.171V28ZM160.179 9.1V8.1H158.67L159.258 9.48947L160.179 9.1ZM164.175 9.1L165.101 8.72293L164.847 8.1H164.175V9.1ZM169.935 23.248L170.363 24.1517L171.218 23.7469L170.861 22.8709L169.935 23.248ZM169.251 23.572L168.331 23.1806L167.3 25.6024L169.679 24.4757L169.251 23.572ZM175.407 9.1V8.1H174.745L174.487 8.70857L175.407 9.1ZM179.223 9.1L180.137 9.50565L180.761 8.1H179.223V9.1ZM170.835 28V29H171.485L171.749 28.4057L170.835 28ZM169.092 27.6105L161.1 8.71053L159.258 9.48947L167.25 28.3895L169.092 27.6105ZM160.179 10.1H164.175V8.1H160.179V10.1ZM163.249 9.47707L169.009 23.6251L170.861 22.8709L165.101 8.72293L163.249 9.47707ZM169.507 22.3443L168.823 22.6683L169.679 24.4757L170.363 24.1517L169.507 22.3443ZM170.171 23.9634L176.327 9.49143L174.487 8.70857L168.331 23.1806L170.171 23.9634ZM175.407 10.1H179.223V8.1H175.407V10.1ZM178.309 8.69434L169.921 27.5943L171.749 28.4057L180.137 9.50565L178.309 8.69434ZM170.835 27H168.171V29H170.835V27ZM185.724 27.136L185.232 28.0068L185.241 28.0115L185.249 28.016L185.724 27.136ZM182.196 23.716L181.332 24.2199L181.339 24.2305L182.196 23.716ZM181.656 14.68L182.587 15.0451L182.587 15.0451L181.656 14.68ZM183.636 11.512L182.91 10.8243L182.91 10.8248L183.636 11.512ZM186.696 9.424L187.074 10.3499L187.083 10.346L186.696 9.424ZM194.004 9.388L193.59 10.2984L193.599 10.3023L193.608 10.3061L194.004 9.388ZM196.74 11.296L196.012 11.9814L196.017 11.987L196.023 11.9925L196.74 11.296ZM198.54 14.212L197.6 14.5521L197.604 14.5643L197.609 14.5764L198.54 14.212ZM199.152 17.848L200.152 17.8707L200.152 17.8662L199.152 17.848ZM199.116 19.432V20.432H200.094L200.116 19.4547L199.116 19.432ZM183.672 19.432L182.709 19.7021L182.914 20.432H183.672V19.432ZM182.844 16.48V15.48H181.525L181.881 16.7501L182.844 16.48ZM195.912 16.48L196.662 17.1416L198.128 15.48H195.912V16.48ZM195.372 17.092H194.372V19.7368L196.122 17.7536L195.372 17.092ZM195.372 16.228H196.372V16.1826L196.368 16.1375L195.372 16.228ZM194.58 14.104L195.387 13.514L195.387 13.514L194.58 14.104ZM192.852 12.628L192.393 13.5162L192.393 13.5162L192.852 12.628ZM187.308 12.844L187.784 13.7237L187.793 13.7188L187.802 13.7137L187.308 12.844ZM185.292 15.004L186.191 15.442L186.195 15.4331L185.292 15.004ZM185.436 21.952L184.564 22.4413L184.569 22.4505L185.436 21.952ZM187.776 24.184L187.312 25.0698L187.312 25.0698L187.776 24.184ZM193.86 24.508L193.503 23.5739L193.494 23.5776L193.86 24.508ZM196.488 22.816L197.303 22.2358L196.663 21.3373L195.831 22.0622L196.488 22.816ZM198.36 25.444L199.067 26.1511L199.665 25.5529L199.175 24.8638L198.36 25.444ZM196.236 26.956L195.779 26.0666L195.768 26.0722L196.236 26.956ZM193.608 28L193.863 28.9671L193.871 28.9648L193.88 28.9624L193.608 28ZM190.908 27.36C189.108 27.36 187.547 26.9834 186.199 26.256L185.249 28.016C186.925 28.9206 188.82 29.36 190.908 29.36V27.36ZM186.216 26.2652C184.876 25.5087 183.827 24.4904 183.054 23.2015L181.339 24.2305C182.293 25.8216 183.597 27.0833 185.232 28.0068L186.216 26.2652ZM183.06 23.2121C182.32 21.9432 181.936 20.4652 181.936 18.748H179.936C179.936 20.7748 180.393 22.6088 181.332 24.2199L183.06 23.2121ZM181.936 18.748C181.936 17.3686 182.158 16.1385 182.587 15.0451L180.725 14.3149C180.194 15.6695 179.936 17.1514 179.936 18.748H181.936ZM182.587 15.0451C183.024 13.9315 183.617 12.9871 184.363 12.1992L182.91 10.8248C181.975 11.8129 181.248 12.9805 180.725 14.3149L182.587 15.0451ZM184.362 12.1997C185.127 11.3921 186.028 10.7767 187.074 10.3498L186.318 8.49815C185.012 9.03126 183.873 9.80788 182.91 10.8243L184.362 12.1997ZM187.083 10.346C188.152 9.89698 189.316 9.668 190.584 9.668V7.668C189.068 7.668 187.64 7.94302 186.309 8.50202L187.083 10.346ZM190.584 9.668C191.673 9.668 192.671 9.88068 193.59 10.2984L194.418 8.47763C193.225 7.93532 191.943 7.668 190.584 7.668V9.668ZM193.608 10.3061C194.542 10.7094 195.34 11.2674 196.012 11.9814L197.468 10.6106C196.604 9.69258 195.578 8.97858 194.401 8.46994L193.608 10.3061ZM196.023 11.9925C196.71 12.7013 197.237 13.5499 197.6 14.5521L199.48 13.8719C199.027 12.6181 198.354 11.5227 197.458 10.5995L196.023 11.9925ZM197.609 14.5764C197.988 15.5455 198.174 16.6257 198.152 17.8298L200.152 17.8662C200.178 16.4303 199.956 15.0865 199.471 13.8476L197.609 14.5764ZM198.152 17.8253L198.116 19.4093L200.116 19.4547L200.152 17.8707L198.152 17.8253ZM199.116 18.432H183.672V20.432H199.116V18.432ZM184.635 19.1619L183.807 16.2099L181.881 16.7501L182.709 19.7021L184.635 19.1619ZM182.844 17.48H195.912V15.48H182.844V17.48ZM195.162 15.8184L194.622 16.4304L196.122 17.7536L196.662 17.1416L195.162 15.8184ZM196.372 17.092V16.228H194.372V17.092H196.372ZM196.368 16.1375C196.28 15.1705 195.954 14.2887 195.387 13.514L193.773 14.694C194.119 15.1673 194.32 15.7015 194.376 16.3185L196.368 16.1375ZM195.387 13.514C194.839 12.7632 194.143 12.1699 193.312 11.7398L192.393 13.5162C192.953 13.8061 193.409 14.1968 193.773 14.694L195.387 13.514ZM193.312 11.7398C192.468 11.3033 191.553 11.088 190.584 11.088V13.088C191.247 13.088 191.845 13.2327 192.393 13.5162L193.312 11.7398ZM190.584 11.088C189.161 11.088 187.888 11.3649 186.814 11.9743L187.802 13.7137C188.504 13.3151 189.415 13.088 190.584 13.088V11.088ZM186.833 11.9643C185.748 12.5508 184.931 13.4339 184.389 14.5749L186.195 15.4331C186.565 14.6541 187.093 14.0972 187.784 13.7237L186.833 11.9643ZM184.393 14.566C183.852 15.6764 183.608 17.001 183.608 18.496H185.608C185.608 17.207 185.82 16.2036 186.191 15.442L184.393 14.566ZM183.608 18.496C183.608 19.958 183.915 21.2842 184.564 22.4413L186.308 21.4627C185.853 20.6518 185.608 19.674 185.608 18.496H183.608ZM184.569 22.4505C185.219 23.58 186.141 24.4562 187.312 25.0698L188.24 23.2982C187.396 22.8558 186.758 22.244 186.303 21.4535L184.569 22.4505ZM187.312 25.0698C188.485 25.684 189.812 25.976 191.268 25.976V23.976C190.084 23.976 189.084 23.74 188.24 23.2982L187.312 25.0698ZM191.268 25.976C192.317 25.976 193.307 25.8008 194.227 25.4384L193.494 23.5776C192.829 23.8392 192.091 23.976 191.268 23.976V25.976ZM194.217 25.4421C195.179 25.0744 196.155 24.4331 197.145 23.5698L195.831 22.0622C194.949 22.8309 194.173 23.3176 193.503 23.5739L194.217 25.4421ZM195.674 23.3962L197.546 26.0242L199.175 24.8638L197.303 22.2358L195.674 23.3962ZM197.653 24.7369C197.161 25.229 196.541 25.6747 195.779 26.0667L196.693 27.8453C197.611 27.3733 198.407 26.811 199.067 26.1511L197.653 24.7369ZM195.768 26.0722C195.018 26.4694 194.208 26.7917 193.337 27.0376L193.88 28.9624C194.88 28.6803 195.822 28.3066 196.704 27.8398L195.768 26.0722ZM193.354 27.0329C192.52 27.2524 191.705 27.36 190.908 27.36V29.36C191.887 29.36 192.873 29.2276 193.863 28.9671L193.354 27.0329ZM203.794 28H202.794V29H203.794V28ZM203.794 9.1V8.1H202.794V9.1H203.794ZM207.502 9.1H208.502V8.1H207.502V9.1ZM207.502 28V29H208.502V28H207.502ZM203.758 4.312L204.444 3.58499L204.444 3.58498L203.758 4.312ZM203.758 0.891999L203.07 0.166047L203.06 0.175339L203.051 0.184892L203.758 0.891999ZM207.43 0.856L206.743 1.58301L206.743 1.58301L207.43 0.856ZM207.394 4.276L206.706 3.55005L206.696 3.55934L206.687 3.56889L207.394 4.276ZM204.794 28V9.1H202.794V28H204.794ZM203.794 10.1H207.502V8.1H203.794V10.1ZM206.502 9.1V28H208.502V9.1H206.502ZM207.502 27H203.794V29H207.502V27ZM205.594 3.924C204.97 3.924 204.636 3.76585 204.444 3.58499L203.071 5.03901C203.744 5.67415 204.634 5.924 205.594 5.924V3.924ZM204.444 3.58498C204.261 3.41125 204.11 3.12676 204.11 2.584H202.11C202.11 3.52924 202.391 4.39675 203.071 5.03901L204.444 3.58498ZM204.11 2.584C204.11 2.11306 204.247 1.81696 204.465 1.59911L203.051 0.184892C202.405 0.831035 202.11 1.66294 202.11 2.584H204.11ZM204.446 1.61795C204.676 1.39932 205.022 1.244 205.594 1.244V-0.756001C204.63 -0.756001 203.751 -0.479324 203.07 0.166047L204.446 1.61795ZM205.594 1.244C206.218 1.244 206.552 1.40215 206.743 1.58301L208.116 0.128987C207.444 -0.506152 206.554 -0.756001 205.594 -0.756001V1.244ZM206.743 1.58301C206.927 1.75675 207.078 2.04124 207.078 2.584H209.078C209.078 1.63875 208.797 0.771251 208.116 0.128986L206.743 1.58301ZM207.078 2.584C207.078 3.03821 206.94 3.32833 206.706 3.55005L208.082 5.00195C208.76 4.35967 209.078 3.52178 209.078 2.584H207.078ZM206.687 3.56889C206.488 3.768 206.169 3.924 205.594 3.924V5.924C206.555 5.924 207.436 5.648 208.101 4.98311L206.687 3.56889ZM213.201 28H212.201V29H213.201V28ZM213.201 9.1V8.1H212.201V9.1H213.201ZM216.945 9.1H217.945V8.1H216.945V9.1ZM216.945 15.04L215.975 15.2825L217.945 15.04H216.945ZM216.585 13.6L215.625 13.3219L215.55 13.5809L215.615 13.8425L216.585 13.6ZM217.917 11.116L217.163 10.4592L217.157 10.4662L217.151 10.4734L217.917 11.116ZM220.113 9.352L219.656 8.46265L219.645 8.46821L220.113 9.352ZM223.857 8.812L223.661 9.79265L223.673 9.79487L223.857 8.812ZM224.757 9.064L225.73 9.29836L225.925 8.48852L225.164 8.15019L224.757 9.064ZM223.785 13.096L223.401 14.0191L224.483 14.4699L224.758 13.3304L223.785 13.096ZM222.813 12.808L222.539 13.7695L222.578 13.7806L222.617 13.7886L222.813 12.808ZM219.933 13.06L220.318 13.9831L220.327 13.9793L220.336 13.9753L219.933 13.06ZM218.385 14.104L219.092 14.8111L219.092 14.8111L218.385 14.104ZM217.341 15.652L218.25 16.0687L218.254 16.0617L218.257 16.0547L217.341 15.652ZM216.945 28V29H217.945V28H216.945ZM214.201 28V9.1H212.201V28H214.201ZM213.201 10.1H216.945V8.1H213.201V10.1ZM215.945 9.1V15.04H217.945V9.1H215.945ZM217.916 14.7975L217.556 13.3575L215.615 13.8425L215.975 15.2825L217.916 14.7975ZM217.546 13.8781C217.77 13.1029 218.147 12.3984 218.684 11.7586L217.151 10.4734C216.44 11.3216 215.928 12.2731 215.625 13.3219L217.546 13.8781ZM218.671 11.7728C219.244 11.115 219.881 10.6065 220.581 10.2358L219.645 8.46821C218.714 8.96151 217.886 9.62902 217.163 10.4592L218.671 11.7728ZM220.571 10.2413C221.279 9.87728 221.987 9.704 222.705 9.704V7.704C221.648 7.704 220.628 7.96272 219.656 8.46271L220.571 10.2413ZM222.705 9.704C223.055 9.704 223.373 9.73483 223.661 9.79258L224.053 7.83142C223.622 7.74517 223.172 7.704 222.705 7.704V9.704ZM223.673 9.79487C224.023 9.86054 224.237 9.92713 224.351 9.97781L225.164 8.15019C224.846 8.00887 224.459 7.90745 224.042 7.82913L223.673 9.79487ZM223.785 8.82964L222.813 12.8616L224.758 13.3304L225.73 9.29836L223.785 8.82964ZM224.17 12.1729C223.812 12.0236 223.423 11.9101 223.009 11.8274L222.617 13.7886C222.924 13.8499 223.183 13.9284 223.401 14.0191L224.17 12.1729ZM223.088 11.8465C222.666 11.726 222.238 11.664 221.805 11.664V13.664C222.045 13.664 222.288 13.698 222.539 13.7695L223.088 11.8465ZM221.805 11.664C221.017 11.664 220.256 11.8255 219.531 12.1447L220.336 13.9753C220.811 13.7665 221.298 13.664 221.805 13.664V11.664ZM219.549 12.1369C218.848 12.4288 218.223 12.8517 217.678 13.3969L219.092 14.8111C219.459 14.4443 219.867 14.1712 220.318 13.9831L219.549 12.1369ZM217.678 13.3969C217.152 13.9228 216.736 14.5441 216.426 15.2493L218.257 16.0547C218.474 15.5599 218.754 15.1492 219.092 14.8111L217.678 13.3969ZM216.432 15.2353C216.103 15.9545 215.945 16.7345 215.945 17.56H217.945C217.945 16.9935 218.052 16.5015 218.25 16.0687L216.432 15.2353ZM215.945 17.56V28H217.945V17.56H215.945ZM216.945 27H213.201V29H216.945V27ZM229.9 27.064L229.338 27.8912L229.346 27.8961L229.9 27.064ZM226.84 23.536L225.952 23.9946L225.952 23.9946L226.84 23.536ZM226.84 13.456L225.958 12.9861L225.955 12.9915L226.84 13.456ZM230.008 9.964L229.478 9.11597L229.471 9.12034L230.008 9.964ZM237.208 9.136L237.541 8.19301L237.541 8.19301L237.208 9.136ZM239.332 10.36L238.672 11.1107L238.688 11.1247L238.704 11.1379L239.332 10.36ZM240.844 12.124L239.976 12.6201L239.983 12.6316L239.99 12.643L240.844 12.124ZM241.6 14.284L241.272 15.2285L242.792 15.7574L242.593 14.16L241.6 14.284ZM240.772 13.996H239.772V14.7069L240.444 14.9405L240.772 13.996ZM240.772 9.1V8.1H239.772V9.1H240.772ZM244.516 9.1H245.516V8.1H244.516V9.1ZM244.516 28V29H245.516V28H244.516ZM240.772 28H239.772V29H240.772V28ZM240.772 23.5L240.492 22.54L239.772 22.75V23.5H240.772ZM241.636 23.248L242.613 23.4649L242.979 21.8146L241.356 22.288L241.636 23.248ZM240.736 25.156L239.929 24.566L239.925 24.5717L240.736 25.156ZM239.044 26.776L238.477 25.9528L238.47 25.9575L238.463 25.9623L239.044 26.776ZM236.776 27.928L236.452 26.982L236.443 26.985L236.776 27.928ZM238.144 24.112L237.606 23.2693L237.606 23.2693L238.144 24.112ZM240.16 21.844L239.27 21.3881L239.266 21.3968L240.16 21.844ZM240.16 15.22L239.266 15.6672L239.27 15.6761L239.275 15.6848L240.16 15.22ZM238.144 12.952L237.606 13.7947L237.606 13.7947L238.144 12.952ZM232.204 12.952L231.666 12.1092L231.655 12.1163L232.204 12.952ZM230.188 15.22L229.303 14.7552L229.298 14.7639L229.294 14.7728L230.188 15.22ZM230.188 21.844L229.29 22.2824L229.296 22.2957L229.303 22.3088L230.188 21.844ZM232.204 24.112L231.655 24.9478L231.666 24.9547L232.204 24.112ZM234.184 27.36C232.821 27.36 231.586 26.9863 230.455 26.2319L229.346 27.8961C230.806 28.8697 232.427 29.36 234.184 29.36V27.36ZM230.462 26.2368C229.34 25.4747 228.427 24.4307 227.729 23.0774L225.952 23.9946C226.789 25.6173 227.916 26.9253 229.338 27.8912L230.462 26.2368ZM227.729 23.0774C227.042 21.7472 226.688 20.2275 226.688 18.496H224.688C224.688 20.5085 225.102 22.3488 225.952 23.9946L227.729 23.0774ZM226.688 18.496C226.688 16.7379 227.043 15.2215 227.726 13.9205L225.955 12.9915C225.101 14.6185 224.688 16.4621 224.688 18.496H226.688ZM227.723 13.9258C228.44 12.5781 229.382 11.5479 230.545 10.8077L229.471 9.12034C227.995 10.0601 226.824 11.3579 225.958 12.9862L227.723 13.9258ZM230.538 10.812C231.716 10.0759 233.031 9.704 234.508 9.704V7.704C232.674 7.704 230.989 8.17209 229.478 9.116L230.538 10.812ZM234.508 9.704C235.394 9.704 236.18 9.83351 236.875 10.079L237.541 8.19301C236.605 7.86249 235.59 7.704 234.508 7.704V9.704ZM236.875 10.079C237.581 10.328 238.175 10.6739 238.672 11.1107L239.993 9.60929C239.289 8.99007 238.468 8.52002 237.541 8.19301L236.875 10.079ZM238.704 11.1379C239.235 11.5666 239.656 12.0601 239.976 12.6201L241.713 11.6279C241.265 10.8439 240.678 10.1614 239.961 9.58206L238.704 11.1379ZM239.99 12.643C240.326 13.1964 240.53 13.7822 240.608 14.408L242.593 14.16C242.479 13.2498 242.179 12.3956 241.699 11.605L239.99 12.643ZM241.929 13.3395L241.101 13.0515L240.444 14.9405L241.272 15.2285L241.929 13.3395ZM241.772 13.996V9.1H239.772V13.996H241.772ZM240.772 10.1H244.516V8.1H240.772V10.1ZM243.516 9.1V28H245.516V9.1H243.516ZM244.516 27H240.772V29H244.516V27ZM241.772 28V23.5H239.772V28H241.772ZM241.052 24.46L241.916 24.208L241.356 22.288L240.492 22.54L241.052 24.46ZM240.66 23.0311C240.551 23.5241 240.317 24.0352 239.929 24.566L241.544 25.746C242.068 25.0288 242.434 24.2679 242.613 23.4649L240.66 23.0311ZM239.925 24.5717C239.569 25.0664 239.092 25.5287 238.477 25.9528L239.612 27.5992C240.389 27.0633 241.04 26.4456 241.548 25.7403L239.925 24.5717ZM238.463 25.9623C237.876 26.3819 237.207 26.7231 236.452 26.9821L237.101 28.8739C238.025 28.5569 238.869 28.1301 239.626 27.5897L238.463 25.9623ZM236.443 26.985C235.74 27.2333 234.989 27.36 234.184 27.36V29.36C235.204 29.36 236.181 29.1987 237.109 28.871L236.443 26.985ZM235.156 25.94C236.455 25.94 237.642 25.6196 238.683 24.9547L237.606 23.2693C236.919 23.7084 236.113 23.94 235.156 23.94V25.94ZM238.683 24.9547C239.706 24.3008 240.498 23.4049 241.055 22.2912L239.266 21.3968C238.863 22.2031 238.31 22.8192 237.606 23.2693L238.683 24.9547ZM241.05 22.2999C241.635 21.1575 241.916 19.8819 241.916 18.496H239.916C239.916 19.6061 239.693 20.5625 239.27 21.3881L241.05 22.2999ZM241.916 18.496C241.916 17.1312 241.634 15.8761 241.046 14.7552L239.275 15.6848C239.694 16.4839 239.916 17.4128 239.916 18.496H241.916ZM241.055 14.7728C240.498 13.6591 239.706 12.7632 238.683 12.1093L237.606 13.7947C238.31 14.2448 238.863 14.8609 239.266 15.6672L241.055 14.7728ZM238.683 12.1093C237.642 11.4444 236.455 11.124 235.156 11.124V13.124C236.113 13.124 236.919 13.3556 237.606 13.7947L238.683 12.1093ZM235.156 11.124C233.877 11.124 232.703 11.4467 231.666 12.1093L232.743 13.7947C233.434 13.3533 234.228 13.124 235.156 13.124V11.124ZM231.655 12.1163C230.662 12.7687 229.879 13.6572 229.303 14.7552L231.074 15.6848C231.505 14.8628 232.066 14.2393 232.753 13.7877L231.655 12.1163ZM229.294 14.7728C228.735 15.89 228.468 17.1387 228.468 18.496H230.468C230.468 17.4053 230.681 16.47 231.083 15.6672L229.294 14.7728ZM228.468 18.496C228.468 19.8746 228.734 21.1439 229.29 22.2824L231.087 21.4056C230.682 20.5761 230.468 19.6134 230.468 18.496H228.468ZM229.303 22.3088C229.879 23.4068 230.662 24.2953 231.655 24.9477L232.753 23.2763C232.066 22.8247 231.505 22.2012 231.074 21.3792L229.303 22.3088ZM231.666 24.9547C232.703 25.6173 233.877 25.94 235.156 25.94V23.94C234.228 23.94 233.434 23.7107 232.743 23.2693L231.666 24.9547Z" fill="black" fill-opacity="0.38"/>
</g>
</svg>
